<svg version="1.1" id="Layer_1" xmlns="http://www.w3.org/2000/svg" xmlns:xlink="http://www.w3.org/1999/xlink" x="0px" y="0px" viewBox="0 0 512 512" style="enable-background:new 0 0 512 512;" xml:space="preserve"><path d="M341.7,289.8c-48.1,34.7-87.7,7.9-99.8-39.4c-18.7-73-12-197,51.4-222.9C268.9,222.5,375.9,259.5,341.7,289.8z"/><path d="M313.4,249c0,0-173.5-20.5-221.5-204.5c-57,54,21,278,159,263c-30,67-85,110-121,125c-12,36-1,52,1,52 c33-5,58-5,82-67c59,9,167-55,177-165c20-42,49-16,49-16s-23-47-53-44c-9.6,0.3-19.1,5.5-27.6,12.5 C358.3,205,322.9,237.5,313.4,249z"/></svg>